<svg width="375" height="216" xmlns="http://www.w3.org/2000/svg"><g fill="none" fill-rule="evenodd"><path d="M0 0h375v216H0z" fill="#687089"/><path d="M309.19 194.983c.094.096.19.19.344.336.076.078.154.152.26.253.03.027.037.033.106.105l.05.051c.211.208.455.382.72.515.268.134.555.227.852.276.331.054.666.083 1.013.087a43.055 43.055 0 0 0 .49.01h5.99V198l-.001-.692v-.693h.605c.133 0 .243-.002.5-.009a6.74 6.74 0 0 0 1.004-.087 2.97 2.97 0 0 0 .85-.276 2.818 2.818 0 0 0 1.523-2.056c.054-.326.083-.656.088-.998.005-.18.008-.335.008-.483v-7.116-.287l-.002-.126a19.451 19.451 0 0 0-.006-.377 6.537 6.537 0 0 0-.087-.98 3.006 3.006 0 0 0-.28-.841 2.824 2.824 0 0 0-1.245-1.222 2.974 2.974 0 0 0-.853-.276 6.242 6.242 0 0 0-1.011-.087 16.616 16.616 0 0 0-.489-.01h-6.596c-.087 0-.179.002-.29.004l-.215.006a6.165 6.165 0 0 0-.997.087 2.907 2.907 0 0 0-1.587.804c-.075.079-.105.11-.13.134-.102.094-.19.178-.284.273-.154.148-.24.232-.339.331l-2.374 2.336a.877.877 0 0 0-.071.063l-.056.054a8.868 8.868 0 0 0-.228.224l-2.105 2.069-.044.043-.048.047-.103.103a3.323 3.323 0 0 0-.14.142 5.03 5.03 0 0 0-.44.476l-.051.057a.427.427 0 0 0-.077.103.946.946 0 0 0 0 .518.522.522 0 0 0 .086.119c.167.197.307.349.461.5l.042.041.04.04a12.986 12.986 0 0 0 .184.183l.097.096 2.094 2.062.205.196.137.134a.78.78 0 0 1 .07.064l2.33 2.29zm10.942-14.974c.41.003.821.038 1.223.107.437.071.861.209 1.256.407a4.228 4.228 0 0 1 1.862 1.83c.198.388.336.803.413 1.237.065.394.1.793.105 1.18.004.112.005.198.007.391l.002.133v7.412c0 .163-.003.332-.009.512-.005.4-.04.798-.106 1.198a4.398 4.398 0 0 1-.416 1.239 4.227 4.227 0 0 1-1.857 1.822c-.396.198-.82.336-1.258.407-.403.066-.81.102-1.207.107-.26.007-.378.009-.528.009h-.603v-.692l-.002-.413V198h-5.99a13.891 13.891 0 0 1-.517-.01 8.15 8.15 0 0 1-1.216-.106 4.421 4.421 0 0 1-1.26-.407 4.234 4.234 0 0 1-1.155-.849l-.042-.043c-.13-.123-.218-.207-.296-.286a19.296 19.296 0 0 1-.35-.343l-2.276-2.237-.078-.073-.168-.163-.208-.2-2.098-2.066a13.019 13.019 0 0 1-.176-.174l-.051-.05-.14-.14a7.363 7.363 0 0 1-.503-.542 1.904 1.904 0 0 1-.349-.524l-.026-.067a2.31 2.31 0 0 1 0-1.44l.024-.063a1.81 1.81 0 0 1 .35-.523c.153-.187.316-.364.49-.531.05-.054.093-.098.179-.182l.095-.094.019-.02.034-.033.051-.05 2.088-2.05a7.43 7.43 0 0 1 .215-.213l.086-.084.094-.09 2.339-2.296c.102-.103.195-.194.345-.338.097-.098.198-.195.31-.299.036-.037.06-.063.078-.08l.041-.042c.316-.31.679-.57 1.077-.77.396-.197.82-.334 1.255-.406a7.519 7.519 0 0 1 1.21-.107 44.161 44.161 0 0 1 .427-.009h6.697c.15 0 .269.002.513.01zm-.728 5.447a.614.614 0 0 0-.922.074l-2.667 2.622-2.647-2.6a.588.588 0 0 0-.006-.01l-.07-.082a.607.607 0 0 0-.858 0 .588.588 0 0 0 .001.841l-.004-.004-.011.012 2.738 2.686-2.638 2.595a.604.604 0 0 0-.013.009l-.084.069a.593.593 0 0 0 0 .844.614.614 0 0 0 .858 0l-.006.003.011.011 2.732-2.687 2.734 2.683a.628.628 0 0 0 .862-.008.588.588 0 0 0-.082-.91l-2.657-2.608 2.737-2.691a.604.604 0 0 0-.008-.85z" fill="#FFF" fill-rule="nonzero"/><g fill="#FFF"><path d="M134 167h107a5 5 0 0 1 5 5v36a5 5 0 0 1-5 5H134a5 5 0 0 1-5-5v-36a5 5 0 0 1 5-5z" opacity=".31"/><path d="M187.593 199.293c4.101 0 6.47-3.552 6.47-9.119 0-5.53-2.38-9.082-6.47-9.082s-6.494 3.577-6.494 9.095c0 5.566 2.38 9.106 6.494 9.106zm0-1.917c-2.759 0-4.285-2.807-4.285-7.202 0-4.297 1.563-7.153 4.285-7.153 2.722 0 4.26 2.832 4.26 7.166 0 4.394-1.514 7.19-4.26 7.19z" fill-rule="nonzero"/></g><g fill="#FFF"><path d="M257 113h107a5 5 0 0 1 5 5v37a5 5 0 0 1-5 5H257a5 5 0 0 1-5-5v-37a5 5 0 0 1 5-5z" opacity=".31"/><path d="M294.071 152l1.319-4.746h.078L296.8 152h1.382l1.87-7.046h-1.524l-1.089 5.034h-.078l-1.308-5.034h-1.245l-1.285 5.034h-.078l-1.098-5.034h-1.534L292.68 152h1.391zm10.428 0l1.533-2.422h.088l1.514 2.422h1.68l-2.286-3.525 2.32-3.52h-1.65l-1.485 2.494h-.088l-1.47-2.495h-1.733l2.236 3.496-2.25 3.55h1.591zm11.556 0v-2.632l2.45-4.414h-1.596l-1.548 2.964h-.088l-1.552-2.964h-1.597l2.456 4.414V152h1.475zm10.901 0v-1.216h-3.633v-.088l3.535-4.785v-.957H321.6v1.216h3.462v.088l-3.545 4.78V152h5.44z" fill-rule="nonzero"/><path d="M310.031 138.293c4.31 0 6.824-3.467 6.824-9.4 0-6.677-3.54-8.813-6.69-8.813-3.613 0-6.237 2.54-6.237 6.018 0 3.345 2.49 5.823 5.847 5.823 2.246 0 4.175-1.135 4.92-2.881h.036c-.061 4.675-1.685 7.336-4.675 7.336-1.831 0-3.21-.842-3.7-2.465h-2.233c.513 2.649 2.869 4.382 5.908 4.382zm.122-8.3c-2.307 0-4.004-1.673-4.004-3.968 0-2.21 1.783-3.967 4.04-3.967 2.271 0 4.03 1.77 4.03 4.028 0 2.246-1.734 3.906-4.066 3.906z" fill-rule="nonzero"/></g><g fill="#FFF"><path d="M134 113h107a5 5 0 0 1 5 5v37a5 5 0 0 1-5 5H134a5 5 0 0 1-5-5v-37a5 5 0 0 1 5-5z" opacity=".31"/><path d="M177.33 152v-5.83h2.114v-1.216h-5.703v1.216h2.114V152h1.475zm8.367.18c1.802 0 2.95-1.054 2.95-2.612v-4.614h-1.475v4.473c0 .903-.532 1.489-1.475 1.489-.942 0-1.48-.586-1.48-1.49v-4.472h-1.474v4.614c0 1.558 1.153 2.613 2.954 2.613zm10.316-.18l2.348-7.046h-1.587l-1.572 5.435h-.088l-1.601-5.435h-1.665L194.23 152h1.783z" fill-rule="nonzero"/><path d="M187.483 138.293c3.735 0 6.396-2.1 6.396-5.054 0-2.185-1.513-3.991-3.796-4.529v-.048c1.953-.623 3.137-2.1 3.137-3.931 0-2.686-2.405-4.639-5.737-4.639-3.308 0-5.75 1.966-5.75 4.627 0 1.855 1.209 3.344 3.15 3.943v.048c-2.27.525-3.784 2.332-3.784 4.53 0 2.941 2.66 5.053 6.384 5.053zm0-10.45c-2.1 0-3.565-1.208-3.565-2.917 0-1.72 1.465-2.942 3.565-2.942 2.1 0 3.564 1.209 3.564 2.942 0 1.71-1.477 2.918-3.564 2.918zm0 8.533c-2.417 0-4.15-1.379-4.15-3.295 0-1.93 1.733-3.309 4.15-3.309 2.43 0 4.15 1.368 4.15 3.309 0 1.916-1.72 3.295-4.15 3.295z" fill-rule="nonzero"/></g><g fill="#FFF"><path d="M11 113h107a5 5 0 0 1 5 5v37a5 5 0 0 1-5 5H11a5 5 0 0 1-5-5v-37a5 5 0 0 1 5-5z" opacity=".31"/><path d="M48.81 152v-2.222h1.392c1.485 0 2.515-.966 2.515-2.402 0-1.455-.991-2.422-2.442-2.422h-2.94V152h1.476zm1.07-3.379h-1.07v-2.495h1.075c.85 0 1.333.435 1.333 1.255 0 .8-.493 1.24-1.338 1.24zm9.26 3.56c1.924 0 3.126-1.172 3.126-3.042v-.894h-2.96v1.074h1.529l-.005.132c-.03.88-.698 1.47-1.665 1.47-1.162 0-1.894-.933-1.894-2.466 0-1.504.698-2.427 1.835-2.427.82 0 1.412.42 1.631 1.158h1.465c-.205-1.46-1.43-2.413-3.096-2.413-2.05 0-3.344 1.431-3.344 3.697 0 2.3 1.284 3.71 3.379 3.71zm8.011-.181v-2.578h1.206L69.671 152h1.67l-1.485-2.798c.811-.317 1.28-1.098 1.28-2.002 0-1.391-.952-2.246-2.5-2.246h-2.96V152h1.475zm1.294-3.677h-1.294v-2.217h1.28c.732 0 1.191.43 1.191 1.114 0 .698-.435 1.103-1.177 1.103zm8.68 3.858c1.768 0 2.856-.87 2.856-2.276 0-1.089-.61-1.699-2.026-2.002l-.85-.18c-.825-.181-1.162-.44-1.162-.884 0-.552.489-.908 1.226-.908.713 0 1.23.376 1.299.952h1.386c-.043-1.245-1.142-2.11-2.695-2.11-1.626 0-2.695.87-2.695 2.183 0 1.07.63 1.729 1.914 2.002l.918.2c.864.19 1.216.46 1.216.923 0 .547-.542.933-1.309.933-.83 0-1.406-.376-1.474-.962h-1.426c.053 1.303 1.142 2.129 2.822 2.129z" fill-rule="nonzero"/><path fill-rule="nonzero" d="M61.749 138l7.836-15.576v-2.039H57.928v1.953h9.485v.05L59.44 138z"/></g><g fill="#FFF"><path d="M257 59h107a5 5 0 0 1 5 5v37a5 5 0 0 1-5 5H257a5 5 0 0 1-5-5V64a5 5 0 0 1 5-5z" opacity=".31"/><path d="M297.363 98v-4.77h.078l1.797 4.423h.982l1.792-4.424h.078V98h1.367v-7.046h-1.733l-1.953 4.859h-.088l-1.949-4.859h-1.738V98h1.367zm11.214 0v-4.507h.088L311.917 98h1.22v-7.046h-1.41v4.487h-.088l-3.243-4.487h-1.23V98h1.411zm11.35.18c2.08 0 3.39-1.425 3.39-3.705 0-2.28-1.314-3.702-3.39-3.702-2.074 0-3.393 1.416-3.393 3.702 0 2.28 1.299 3.706 3.394 3.706zm0-1.25c-1.161 0-1.884-.961-1.884-2.455 0-1.5.737-2.452 1.885-2.452 1.142 0 1.88.953 1.88 2.452 0 1.494-.733 2.456-1.88 2.456z" fill-rule="nonzero"/><path d="M310.8 84.305c3.614 0 6.238-2.539 6.238-6.018 0-3.345-2.49-5.823-5.847-5.823-2.393 0-4.2 1.27-4.92 2.857h-.036c.073-4.688 1.745-7.3 4.687-7.3 1.807 0 3.125.916 3.638 2.502h2.234c-.55-2.697-2.856-4.443-5.847-4.443-4.31 0-6.836 3.48-6.836 9.412 0 6.555 3.442 8.813 6.69 8.813zm-.024-1.953c-2.258 0-4.016-1.794-4.016-4.053 0-2.246 1.721-3.906 4.053-3.906 2.331 0 3.991 1.66 3.991 3.967 0 2.222-1.782 3.992-4.028 3.992z" fill-rule="nonzero"/></g><g fill="#FFF"><path d="M134 59h107a5 5 0 0 1 5 5v37a5 5 0 0 1-5 5H134a5 5 0 0 1-5-5V64a5 5 0 0 1 5-5z" opacity=".31"/><path d="M178.237 98.18c1.494 0 2.393-.849 2.393-2.348v-4.878h-1.475v4.868c0 .708-.332 1.084-.937 1.084-.567 0-.938-.37-.947-.942h-1.426c0 1.357.947 2.217 2.392 2.217zm7.576-.18v-2.153l.699-.84L188.558 98h1.767l-2.749-3.96 2.569-3.086h-1.641l-2.603 3.164h-.088v-3.164h-1.474V98h1.474zm12.23 0v-1.24h-3.135v-5.806h-1.474V98h4.609z" fill-rule="nonzero"/><path d="M187.483 84.293c3.674 0 6.274-2.478 6.274-6.018 0-3.381-2.441-5.835-5.822-5.835-1.71 0-3.174.635-4.004 1.819h-.05l.599-5.92h8.276v-1.954h-10.083l-.903 10.047h1.94c.819-1.416 2.162-2.1 3.834-2.1 2.344 0 4.016 1.672 4.016 4.004 0 2.368-1.66 4.028-4.053 4.028-2.111 0-3.71-1.294-3.906-3.174h-2.16c.183 3.003 2.673 5.103 6.042 5.103z" fill-rule="nonzero"/></g><g fill="#FFF"><path d="M11 59h107a5 5 0 0 1 5 5v37a5 5 0 0 1-5 5H11a5 5 0 0 1-5-5V64a5 5 0 0 1 5-5z" opacity=".31"/><path d="M56.112 98.18c1.924 0 3.125-1.171 3.125-3.041v-.894h-2.96v1.074h1.53l-.006.132c-.029.88-.698 1.47-1.665 1.47-1.162 0-1.894-.933-1.894-2.466 0-1.504.698-2.427 1.836-2.427.82 0 1.41.42 1.63 1.158h1.465c-.205-1.46-1.43-2.413-3.095-2.413-2.051 0-3.345 1.431-3.345 3.697 0 2.3 1.284 3.71 3.379 3.71zm8.01-.18v-2.969h3.174V98h1.475v-7.046h-1.475v2.861h-3.173v-2.86h-1.475V98h1.475zm9.833 0v-7.046H72.48V98h1.475z" fill-rule="nonzero"/><path d="M67.926 84v-3.662h2.49v-1.929h-2.49V66.385H64.68c-4.162 5.97-6.225 9.18-7.727 11.963v1.99h8.85V84h2.124zm-2.124-5.59h-6.677v-.05c1.392-2.441 3.308-5.383 6.64-10.144h.037V78.41z" fill-rule="nonzero"/></g><g fill="#FFF"><path d="M257 6h107a5 5 0 0 1 5 5v36a5 5 0 0 1-5 5H257a5 5 0 0 1-5-5V11a5 5 0 0 1 5-5z" opacity=".31"/><path d="M302.292 45c2.109 0 3.305-1.29 3.305-3.57 0-2.211-1.21-3.476-3.305-3.476h-2.774V45h2.774zm-.235-1.216h-1.064V39.17h1.064c1.28 0 2.036.83 2.036 2.285 0 1.509-.732 2.33-2.036 2.33zM313.662 45v-1.216h-3.194v-1.782h3.013v-1.133h-3.013v-1.7h3.194v-1.215h-4.668V45h4.668zm5.027 0v-2.773h2.866V41.06h-2.866v-1.89h3.14v-1.216h-4.615V45h1.475z" fill-rule="nonzero"/><path d="M310.36 31.293c3.455 0 6.117-2.112 6.117-5.14 0-2.502-1.746-4.1-4.31-4.32v-.05c2.21-.463 3.736-1.965 3.736-4.15 0-2.514-2.039-4.54-5.567-4.54-3.295 0-5.615 1.916-5.859 4.907h2.112c.134-1.905 1.672-3.003 3.747-3.003 2.259 0 3.357 1.184 3.357 2.93 0 1.757-1.464 3.051-3.564 3.051h-2.112v1.855h2.21c2.478 0 4.028 1.221 4.016 3.394-.013 1.843-1.563 3.162-3.882 3.162-2.344 0-3.992-1.184-4.126-3.052h-2.112c.159 2.917 2.588 4.956 6.238 4.956z" fill-rule="nonzero"/></g><g fill="#FFF"><path d="M134 6h107a5 5 0 0 1 5 5v36a5 5 0 0 1-5 5H134a5 5 0 0 1-5-5V11a5 5 0 0 1 5-5z" opacity=".31"/><path d="M176.496 45l.542-1.709h2.476l.532 1.709h1.597l-2.447-7.046h-1.733L175.017 45h1.48zm2.705-2.813h-1.846l.884-2.802h.088l.874 2.803zM188.008 45c1.504 0 2.436-.776 2.436-2.017 0-.908-.678-1.606-1.611-1.68v-.087c.723-.108 1.274-.757 1.274-1.504 0-1.089-.815-1.758-2.182-1.758h-3.081V45h3.164zm-.581-4.116h-1.109v-1.836h1.23c.704 0 1.11.342 1.11.918 0 .586-.435.918-1.231.918zm.205 3.017h-1.314v-2.046h1.28c.869 0 1.342.352 1.342 1.011 0 .674-.459 1.035-1.308 1.035zm9.139 1.28c1.699 0 2.939-1.03 3.061-2.535h-1.436c-.141.777-.776 1.275-1.62 1.275-1.114 0-1.802-.938-1.802-2.446 0-1.51.688-2.447 1.797-2.447.84 0 1.479.537 1.62 1.353h1.436c-.107-1.514-1.387-2.608-3.056-2.608-2.046 0-3.306 1.412-3.306 3.702s1.264 3.706 3.306 3.706z" fill-rule="nonzero"/><path d="M193.05 31v-1.953h-8.607v-.049l4.187-4.297c3.235-3.32 4.126-4.773 4.126-6.714 0-2.673-2.246-4.895-5.505-4.895-3.394 0-5.933 2.295-5.933 5.384h2.124c0-1.978 1.636-3.467 3.809-3.467 2.014 0 3.308 1.38 3.308 3.113 0 1.464-.55 2.417-2.93 4.895l-6.2 6.47V31h11.62z" fill-rule="nonzero"/></g><g fill="#FFF"><path d="M11 6h107a5 5 0 0 1 5 5v36a5 5 0 0 1-5 5H11a5 5 0 0 1-5-5V11a5 5 0 0 1 5-5z" opacity=".31"/><path fill-rule="nonzero" d="M67.044 31V13.385h-2.148l-4.688 3.37v2.209l4.664-3.247h.048V31z"/></g></g></svg>