<svg width="171" height="346" xmlns="http://www.w3.org/2000/svg"><g fill="none" fill-rule="evenodd"><path d="M144.72 1.519c13.863 0 25.1 11.237 25.1 25.1v292.767c0 13.862-11.237 25.1-25.1 25.1H26.879c-13.863 0-25.1-11.238-25.1-25.1V26.619c0-13.863 11.237-25.1 25.1-25.1zm-2.187 8.681H129.6a2.411 2.411 0 00-2.301 2.269c-.001 6-3.356 9.672-8.823 9.672H53.123c-5.467 0-8.822-3.672-8.822-9.65a2.406 2.406 0 00-2.282-2.287L29.066 10.2c-11.679 0-18.843 5.463-18.843 17.913v288.572c0 11.26 6.087 17.515 17.64 17.515h115.873c11.553 0 17.64-6.255 17.64-17.515V28.113c0-12.449-7.164-17.913-18.843-17.913z" fill="#000000"/><path d="M26.879 1.519c-13.863 0-25.1 11.237-25.1 25.1v292.767c0 13.862 11.237 25.1 25.1 25.1H144.72c13.863 0 25.1-11.238 25.1-25.1V26.619c0-13.863-11.237-25.1-25.1-25.1H26.879z" stroke="#000000"/><path d="M27.863 334.2c-11.553 0-17.64-6.255-17.64-17.515V28.113c0-12.45 7.164-17.913 18.843-17.913l12.953.004a2.406 2.406 0 012.282 2.287c0 5.978 3.355 9.65 8.822 9.65h65.353c5.467 0 8.822-3.672 8.823-9.672A2.411 2.411 0 01129.6 10.2h12.933c11.679 0 18.843 5.464 18.843 17.913v288.572c0 11.26-6.087 17.515-17.64 17.515H27.863z" stroke="#000000" stroke-width=".8"/></g></svg>