<?xml version="1.0" encoding="iso-8859-1"?>
<!DOCTYPE svg PUBLIC "-//W3C//DTD SVG 1.1//EN" "http://www.w3.org/Graphics/SVG/1.1/DTD/svg11.dtd">
<svg 
 version="1.1" xmlns="http://www.w3.org/2000/svg" xmlns:xlink="http://www.w3.org/1999/xlink" x="0px" y="0px" width="512px"
	 height="512px" viewBox="0 0 512 512" enable-background="new 0 0 512 512" xml:space="preserve"
><g id="2020da7681f0d538108a21c6020155db"><g></g><path display="inline" d="M392.002,247.433c-4.252-66.442-57.543-119.733-123.985-123.987l-8.567-51.406l-8.567,51.406
		c-66.442,4.254-119.733,57.545-123.987,123.987L75.489,256l51.406,8.567c4.254,66.442,57.545,119.733,123.987,123.985l8.567,51.408
		l8.567-51.408c66.442-4.252,119.733-57.543,123.985-123.985L443.409,256L392.002,247.433z M371.219,243.972l-85.492-14.248
		l-14.249-85.491C323.875,149.834,365.617,191.572,371.219,243.972z M247.42,144.232l-14.248,85.491l-85.493,14.248
		C153.281,191.572,195.023,149.834,247.42,144.232z M147.68,268.028l85.493,14.248l14.248,85.493
		C195.023,362.168,153.281,320.426,147.68,268.028z M271.478,367.77l14.249-85.493l85.492-14.248
		C365.617,320.426,323.875,362.168,271.478,367.77z M241.557,61.82H230.33V0.5h11.777l20.169,28.508
		c4.398,6.259,7.976,11.821,10.723,16.679h0.271c-0.366-7.972-0.551-13.777-0.551-17.414V0.5h11.234v61.32h-11.776l-19.985-28.233
		c-3.513-4.886-7.154-10.555-10.907-16.998h-0.279c0.367,7.513,0.551,13.333,0.551,17.458V61.82z M276.623,485.367
		c1.031,1.988,1.541,4.531,1.541,7.625c0,3.178-0.582,5.933-1.765,8.26c-1.173,2.327-2.842,4.248-5.014,5.762
		c-2.163,1.521-4.79,2.646-7.88,3.381c-3.099,0.738-6.483,1.105-10.165,1.105c-3.209,0-6.372-0.319-9.477-0.95
		c-3.106-0.634-5.693-1.524-7.753-2.674v-9.143c2.915,1.266,5.757,2.188,8.528,2.763c2.771,0.575,5.621,0.862,8.567,0.862
		c1.708,0,3.394-0.145,5.038-0.423c1.653-0.279,3.13-0.76,4.439-1.438c1.317-0.675,2.363-1.597,3.162-2.759
		c0.79-1.166,1.189-2.599,1.189-4.308c0-1.501-0.366-2.715-1.102-3.645c-0.734-0.93-1.74-1.686-3.002-2.276
		c-1.271-0.59-2.69-1.069-4.264-1.437c-1.581-0.363-3.233-0.727-4.974-1.082c-2.292-0.499-4.487-1.094-6.579-1.788
		c-2.092-0.695-3.937-1.649-5.526-2.875c-1.589-1.221-2.858-2.774-3.801-4.654c-0.942-1.889-1.413-4.244-1.413-7.07
		c0-3.126,0.543-5.841,1.637-8.152c1.086-2.312,2.572-4.228,4.439-5.745c1.868-1.517,4.064-2.65,6.58-3.4
		c2.523-0.751,5.357-1.126,8.511-1.126c3.146,0,6.315,0.307,9.493,0.926c3.186,0.619,5.924,1.414,8.224,2.387v9.278
		c-3.065-1.205-6.004-2.084-8.813-2.63c-2.819-0.544-5.462-0.819-7.938-0.819c-3.561,0-6.308,0.65-8.232,1.948
		c-1.932,1.293-2.898,3.242-2.898,5.829c0,1.505,0.319,2.738,0.95,3.712c0.63,0.971,1.493,1.772,2.586,2.408
		c1.086,0.635,2.339,1.142,3.752,1.524c1.414,0.383,2.915,0.739,4.504,1.058c2.507,0.531,4.902,1.143,7.178,1.837
		c2.284,0.69,4.313,1.657,6.076,2.894C274.188,481.767,275.594,483.38,276.623,485.367z M497.831,277.262v9.397h-41.384V225.34
		h39.735v9.397h-28.508v15.857h24.476v9.394h-24.476v17.273H497.831z M77.317,225.34l-14.711,61.319h-8.451l-5.194-27.497
		c-1.177-6.2-2.211-12.1-3.11-17.689h-0.215c-0.898,5.713-1.932,11.613-3.11,17.689l-5.194,27.497H28.88L14.169,225.34h9.034
		l5.577,24.424c1.685,7.673,3.042,14.606,4.08,20.808h0.212c1.014-6.66,2.191-13.486,3.529-20.485l4.779-24.747h8.727l4.779,24.747
		c1.337,6.936,2.515,13.762,3.529,20.485h0.212c1.266-7.33,2.626-14.269,4.08-20.808l5.578-24.424H77.317z"></path></g></svg>